<?xml version="1.0" standalone="no"?>
<!DOCTYPE svg PUBLIC "-//W3C//DTD SVG 20010904//EN"
 "http://www.w3.org/TR/2001/REC-SVG-20010904/DTD/svg10.dtd">
<svg version="1.0" xmlns="http://www.w3.org/2000/svg"
 width="768.000000pt" height="768.000000pt" viewBox="0 0 768.000000 768.000000"
 preserveAspectRatio="xMidYMid meet">
<metadata>
Created by potrace 1.11, written by Peter Selinger 2001-2013
</metadata>
<g transform="translate(0.000000,768.000000) scale(0.100000,-0.100000)"
fill="#000000" stroke="none">
<path d="M3727 7643 c-1 -1 -54 -4 -117 -8 -138 -8 -173 -11 -225 -19 -22 -3
-58 -8 -80 -11 -22 -3 -51 -7 -65 -10 -13 -2 -40 -7 -60 -10 -29 -5 -215 -45
-270 -59 -74 -19 -107 -28 -120 -33 -8 -4 -17 -7 -20 -8 -104 -27 -374 -134
-530 -211 -200 -98 -446 -252 -601 -375 -35 -27 -74 -58 -86 -67 -132 -104
-360 -332 -498 -497 -36 -43 -191 -254 -222 -301 -7 -10 -24 -36 -38 -57 -14
-21 -25 -41 -25 -44 0 -4 -6 -14 -14 -22 -32 -38 -210 -384 -231 -451 -1 -3
-7 -16 -12 -30 -57 -130 -147 -404 -168 -510 -2 -8 -4 -15 -5 -15 -2 0 -3 -6
-33 -160 -14 -71 -27 -146 -28 -165 -2 -19 -5 -39 -8 -45 -3 -5 -6 -25 -7 -45
-1 -19 -6 -73 -10 -120 -10 -96 -10 -544 -1 -635 4 -33 9 -78 12 -100 3 -22 8
-58 11 -80 7 -65 35 -216 50 -274 7 -29 11 -58 8 -62 -3 -5 0 -9 6 -9 7 0 10
-7 7 -15 -4 -8 -2 -17 3 -20 6 -4 10 -16 10 -29 0 -31 91 -307 141 -431 45
-109 140 -307 191 -397 74 -130 142 -238 150 -238 4 0 8 -5 8 -11 0 -9 54 -93
70 -109 3 -3 27 -34 54 -70 83 -110 196 -239 307 -349 155 -156 174 -173 429
-374 8 -7 42 -30 75 -51 33 -22 62 -43 63 -48 2 -4 8 -8 14 -8 5 0 25 -12 44
-27 44 -33 46 -31 104 102 24 55 57 129 74 165 16 36 30 70 31 75 2 6 14 34
29 64 14 29 24 57 22 60 -3 3 -37 29 -78 56 -40 27 -75 52 -78 55 -3 3 -50 41
-105 85 -136 108 -435 408 -435 436 0 5 -4 9 -8 9 -9 0 -146 184 -177 238 -11
17 -23 32 -27 32 -4 0 -8 4 -8 10 0 5 -19 40 -42 77 -68 111 -177 330 -187
378 -2 6 -7 16 -13 23 -6 7 -21 43 -34 80 -13 37 -27 74 -30 82 -4 8 -9 24
-11 35 -1 11 -7 29 -13 40 -14 29 -70 247 -86 335 -3 14 -7 33 -10 43 -3 10
-7 32 -9 50 -2 18 -6 50 -9 72 -29 208 -37 430 -22 630 7 100 9 120 20 205 14
105 18 127 28 170 5 25 12 56 14 70 3 14 10 43 16 65 5 22 12 49 14 60 3 20
41 147 52 175 3 8 6 17 7 20 9 35 40 118 49 129 6 8 10 17 10 20 -7 29 143
329 243 490 62 99 184 271 224 316 10 11 35 40 56 65 54 65 301 310 312 310 5
0 11 4 13 9 3 9 93 84 152 126 16 11 33 25 40 30 6 6 38 28 71 50 33 21 62 42
63 47 2 4 10 8 17 8 8 0 20 6 27 13 7 7 33 24 58 38 25 13 47 26 50 29 10 11
245 127 315 155 39 16 75 32 80 36 6 4 26 10 45 14 19 4 40 11 45 15 11 9 188
64 255 80 25 6 54 13 65 16 11 2 40 9 65 14 25 5 55 11 66 14 23 5 61 11 139
22 28 3 58 8 67 10 134 24 634 22 741 -2 12 -3 42 -8 67 -10 41 -4 280 -55
388 -83 41 -11 46 -10 75 15 29 25 182 167 346 321 l65 62 -35 15 c-38 16
-304 104 -335 111 -11 2 -57 14 -104 25 -47 12 -96 23 -110 25 -14 2 -27 5
-30 6 -6 3 -12 4 -75 14 -27 4 -59 10 -70 12 -11 2 -33 6 -50 9 -109 16 -144
20 -269 28 -37 3 -70 7 -73 9 -2 3 -17 1 -33 -3 -16 -4 -31 -5 -34 -2 -6 5
-194 10 -199 5z"/>
<path d="M5689 7612 c-42 -43 -2131 -2120 -3027 -3010 -946 -939 -1212 -1205
-1212 -1211 0 -4 351 -6 781 -6 429 0 785 -3 791 -6 7 -4 5 -18 -5 -40 -8 -19
-34 -86 -57 -149 -24 -63 -70 -185 -102 -270 -55 -145 -97 -256 -198 -525 -22
-60 -45 -119 -50 -130 -5 -11 -30 -76 -55 -145 -25 -69 -49 -134 -54 -145 -5
-11 -14 -36 -21 -55 -7 -19 -16 -44 -21 -55 -4 -11 -44 -117 -89 -235 -44
-118 -84 -224 -89 -235 -6 -11 -29 -72 -52 -135 -23 -63 -50 -137 -61 -165
-42 -109 -69 -180 -72 -190 -2 -5 -6 -17 -9 -25 -13 -33 -78 -206 -81 -215 -1
-5 -10 -28 -20 -50 -9 -22 -20 -52 -23 -67 -3 -16 -9 -28 -13 -28 -3 0 -7 -6
-7 -12 -1 -11 -54 -156 -123 -333 l-11 -30 27 25 c15 14 64 61 109 105 46 44
194 188 330 320 136 132 300 292 365 355 65 63 209 203 320 310 111 107 274
266 363 353 89 87 252 245 362 352 110 106 255 247 322 312 67 65 213 207 325
315 112 108 267 259 345 335 187 182 558 543 1048 1018 131 127 293 284 360
351 l124 121 -790 0 c-434 0 -791 2 -794 5 -4 4 52 182 72 228 3 8 7 20 8 26
3 11 66 194 110 314 12 36 43 124 66 195 24 72 49 133 54 137 6 4 7 8 3 8 -5
0 64 211 89 270 3 8 7 20 9 27 1 7 23 72 49 145 25 73 61 176 79 228 18 52 54
154 80 226 25 73 46 137 46 143 0 6 4 19 9 29 5 9 25 62 44 117 19 55 63 181
97 280 34 99 63 185 65 190 1 6 5 17 8 25 11 24 128 364 132 380 2 8 9 29 16
45 7 17 11 34 10 39 -1 4 2 13 7 20 12 14 55 146 50 151 -2 2 -19 -13 -39 -33z"/>
<path d="M5795 6938 c-20 -46 -44 -99 -52 -118 -16 -37 -26 -58 -92 -205 -37
-83 -39 -91 -23 -103 9 -7 25 -19 35 -27 9 -8 19 -15 22 -15 3 0 17 -11 32
-24 16 -14 64 -56 108 -94 78 -67 226 -211 275 -269 35 -41 123 -146 132 -158
4 -5 18 -23 31 -40 25 -32 148 -215 185 -275 29 -47 162 -312 191 -380 35 -81
119 -329 136 -400 21 -91 46 -208 51 -238 3 -20 7 -48 10 -62 9 -50 14 -86 19
-140 3 -30 8 -75 10 -100 7 -66 7 -395 0 -465 -8 -96 -15 -149 -29 -243 -9
-58 -46 -238 -57 -276 -6 -21 -12 -47 -14 -56 -4 -22 -60 -197 -73 -231 -6
-13 -20 -51 -32 -84 -23 -62 -158 -346 -169 -355 -3 -3 -17 -25 -30 -50 -39
-72 -46 -83 -54 -94 -38 -53 -87 -129 -87 -136 0 -6 -4 -10 -8 -10 -5 0 -23
-21 -40 -47 -17 -27 -39 -57 -49 -68 -10 -11 -35 -42 -56 -68 -134 -165 -397
-411 -567 -527 -19 -13 -37 -27 -40 -30 -3 -3 -14 -11 -25 -17 -266 -163 -322
-194 -495 -270 -139 -61 -349 -133 -460 -158 -8 -2 -30 -8 -48 -14 -18 -5 -35
-10 -37 -10 -3 -1 -6 -1 -7 -2 -2 0 -15 -2 -31 -4 -15 -2 -51 -8 -80 -14 -170
-35 -304 -46 -547 -46 -198 1 -273 5 -390 25 -104 18 -115 20 -195 40 -44 12
-89 23 -100 25 -75 17 -70 19 -133 -42 -65 -63 -329 -314 -368 -350 l-24 -22
31 -16 c17 -9 38 -18 47 -20 10 -2 37 -11 62 -20 47 -17 178 -54 219 -61 14
-3 29 -8 34 -11 6 -3 20 -7 31 -9 12 -1 53 -9 91 -17 39 -8 90 -18 115 -21 25
-3 54 -8 65 -10 23 -4 114 -15 200 -22 76 -7 521 -7 598 0 102 9 250 27 292
36 22 5 61 11 88 14 26 4 57 10 70 15 12 5 25 9 30 9 6 1 70 13 90 18 4 1 8 2
10 4 1 1 11 3 22 5 11 2 57 14 103 28 45 13 82 23 82 21 0 -2 20 5 45 16 25
11 46 19 48 19 7 -1 161 57 214 82 24 10 45 19 49 19 29 0 414 208 520 280 23
17 47 30 52 30 6 0 12 7 16 15 3 8 10 15 16 15 6 0 16 4 23 10 42 35 117 90
122 90 3 0 16 11 29 25 13 14 27 25 30 25 4 0 35 24 68 53 62 53 74 63 189
173 95 91 237 245 289 314 14 18 30 38 35 44 18 19 90 118 147 201 140 204
273 452 358 671 17 44 35 88 39 99 13 28 57 161 72 215 15 54 14 51 34 120 8
30 17 69 20 85 3 17 10 46 15 65 5 19 12 51 15 70 3 19 8 49 12 65 3 17 7 37
8 45 3 24 16 123 20 150 20 124 27 604 12 745 -12 108 -14 126 -21 185 -4 30
-8 62 -10 70 -1 8 -6 33 -10 55 -27 143 -58 276 -85 363 -5 18 -10 34 -11 37
-1 6 -4 18 -26 85 -10 30 -19 57 -19 60 -2 13 -46 127 -55 142 -6 10 -10 22
-10 28 0 37 -215 459 -281 552 -11 14 -19 29 -19 32 0 4 -4 12 -10 19 -5 7
-46 63 -89 125 -183 259 -414 508 -641 692 -30 24 -62 50 -70 57 -32 29 -191
143 -199 143 -4 0 -25 -37 -46 -82z"/>
</g>
</svg>
