<svg width="690" height="724" viewBox="0 0 690 724" fill="none" xmlns="http://www.w3.org/2000/svg">
<g opacity="0.25">
<path d="M420.598 311.991L420.369 312.655H421.071H573.324L152.082 721.656L269.301 411.599L269.557 410.923H268.833H116.512L527.968 1.8772L420.598 311.991Z" stroke="#5F5F63"/>
<path d="M638.754 346.692C638.754 248.962 590.932 162.667 517.455 109.253L538.6 61.7361C629.635 123.755 689.452 228.203 689.5 346.692C689.5 536.935 535.207 691.157 344.94 691.157C302.435 691.157 267.135 685.078 229.554 670.973L273.029 629.62C298.005 636.516 317.737 640.507 344.94 640.507C507.222 640.507 638.754 508.95 638.754 346.692Z" stroke="#5F5F63"/>
<path d="M344.868 2.22815C389.475 2.22815 431.954 10.9613 471.175 26.3594L429.352 65.257C402.64 57.2541 374.299 52.83 344.916 52.83C182.682 52.83 51.1018 184.386 51.1018 346.668C51.1018 449.992 104.534 540.659 185.161 593.08L164.493 639.689C66.1881 579.02 0.5 470.678 0.5 346.668C0.5 156.426 154.698 2.22815 344.868 2.22815Z" stroke="#5F5F63"/>
</g>
</svg>
