<svg width="229" height="45" viewBox="0 0 229 45" fill="none" xmlns="http://www.w3.org/2000/svg">
<path d="M67.5456 27.626V41.0564H59.6027V2.93806H74.6413C77.5361 2.93806 80.0779 3.46168 82.2666 4.50884C84.473 5.5561 86.1675 7.04838 87.3501 8.98565C88.5328 10.9055 89.1241 13.096 89.1241 15.5569C89.1241 19.2919 87.8267 22.2416 85.232 24.4058C82.655 26.5526 79.0806 27.626 74.509 27.626H67.5456ZM67.5456 21.2641H74.6413C76.7418 21.2641 78.3392 20.7754 79.4337 19.7981C80.5456 18.8206 81.1016 17.4244 81.1016 15.6093C81.1016 13.7418 80.5456 12.232 79.4337 11.0801C78.3216 9.92816 76.786 9.33473 74.8267 9.29979H67.5456V21.2641ZM111.655 33.2023H97.7293L95.0813 41.0564H86.6353L100.986 2.93806H108.347L122.776 41.0564H114.33L111.655 33.2023ZM99.874 26.8405H109.511L104.666 12.5723L99.874 26.8405ZM157.751 41.0564H149.809V24.7199H134.32V41.0564H126.377V2.93806H134.32V18.3843H149.809V2.93806H157.751V41.0564ZM164.714 41.0564V2.93806H178.218C182.895 2.93806 186.443 3.82819 188.862 5.60847C191.279 7.37122 192.489 9.96301 192.489 13.384C192.489 15.2515 192.004 16.9008 191.032 18.3319C190.061 19.7457 188.711 20.7842 186.981 21.4474C188.958 21.9361 190.511 22.9222 191.641 24.4058C192.789 25.8894 193.362 27.7045 193.362 29.8513C193.362 33.5165 192.18 36.2915 189.814 38.1765C187.45 40.0615 184.078 41.0214 179.701 41.0564H164.714ZM172.657 24.4582V34.747H179.462C181.333 34.747 182.789 34.3106 183.831 33.438C184.89 32.5478 185.419 31.326 185.419 29.7727C185.419 26.282 183.592 24.5105 179.939 24.4582H172.657ZM172.657 18.9079H178.536C182.542 18.8382 184.546 17.2586 184.546 14.1694C184.546 12.4415 184.034 11.2022 183.01 10.4518C182.004 9.68382 180.406 9.29979 178.218 9.29979H172.657V18.9079ZM205.515 28.3851C205.745 30.8461 206.478 32.6176 207.713 33.6997C208.949 34.7644 210.74 35.2967 213.087 35.2967C215.682 35.2967 217.606 34.4503 218.859 32.7572C220.113 31.0468 220.836 28.5248 221.031 25.1912H208.851V18.8294H221.004C220.792 15.426 220.015 12.904 218.674 11.2633C217.35 9.60521 215.453 8.77625 212.982 8.77625C210.581 8.77625 208.78 9.34345 207.58 10.4779C206.38 11.595 205.683 13.4014 205.489 15.8973H197.546C197.934 11.7259 199.47 8.43588 202.152 6.02735C204.853 3.6187 208.463 2.41443 212.982 2.41443C216.194 2.41443 219.009 3.16497 221.428 4.66596C223.863 6.14952 225.735 8.28748 227.041 11.0801C228.347 13.8551 229 17.0928 229 20.7929V23.28C229 28.9 227.579 33.3593 224.738 36.658C221.913 39.9393 218.03 41.58 213.087 41.58C208.533 41.58 204.88 40.3931 202.126 38.0194C199.391 35.6283 197.872 32.4169 197.572 28.3851H205.515Z" fill="white"/>
<path d="M26.4832 19.4132L33.2806 0L7.25171 25.5867H16.9082L9.48582 45L36.1367 19.4132H26.4832Z" fill="#BF1523"/>
<path d="M33.8619 3.79285L32.5064 6.80497C37.1316 10.1202 40.1431 15.4846 40.1431 21.5612C40.1431 31.6349 31.8845 39.8027 21.6951 39.8027C19.9818 39.8027 18.741 39.5534 17.1635 39.1221L14.3799 41.7401C16.765 42.6312 19.0005 43.0148 21.6951 43.0148C33.6793 43.0148 43.3977 33.4097 43.3977 21.5612C43.3947 14.1681 39.6133 7.65282 33.8619 3.79285Z" fill="#BF1523"/>
<path d="M11.6853 36.8724C6.61025 33.6199 3.2455 27.9837 3.2455 21.5595C3.2455 11.4842 11.5072 3.3165 21.6935 3.3165C23.5533 3.3165 25.3467 3.59559 27.0358 4.10007L27.0162 4.08963L29.6925 1.62833C27.2094 0.65808 24.5179 0.1073 21.6905 0.1073C9.71231 0.1073 0 9.71089 0 21.5595C0 29.2957 4.15122 36.0529 10.3599 39.8278L11.6853 36.8724Z" fill="#BF1523"/>
</svg>
